<svg width="11" height="11" viewBox="0 0 11 11" fill="none" xmlns="http://www.w3.org/2000/svg">
    <path fill-rule="evenodd" clip-rule="evenodd" d="M8.90929 9.91704C9.1014 10.1154 9.41289 10.1154 9.605 9.91704C9.79712 9.71868 9.79712 9.39708 9.605 9.19872L5.75264 5.2212L9.96963 0.867214C10.1617 0.668857 10.1617 0.347255 9.96963 0.148897C9.77751 -0.0494609 9.46603 -0.0494609 9.27391 0.148897L5.05692 4.50289L0.839803 0.148769C0.647686 -0.0495898 0.336204 -0.0495893 0.144088 0.148769C-0.048029 0.347126 -0.0480294 0.668728 0.144088 0.867086L4.3612 5.2212L0.508712 9.19885C0.316595 9.39721 0.316595 9.71881 0.508712 9.91717C0.700828 10.1155 1.01231 10.1155 1.20443 9.91717L5.05692 5.93952L8.90929 9.91704Z" fill="white" />
    <path fill-rule="evenodd" clip-rule="evenodd" d="M8.90929 9.91704C9.1014 10.1154 9.41289 10.1154 9.605 9.91704C9.79712 9.71868 9.79712 9.39708 9.605 9.19872L5.75264 5.2212L9.96963 0.867214C10.1617 0.668857 10.1617 0.347255 9.96963 0.148897C9.77751 -0.0494609 9.46603 -0.0494609 9.27391 0.148897L5.05692 4.50289L0.839803 0.148769C0.647686 -0.0495898 0.336204 -0.0495893 0.144088 0.148769C-0.048029 0.347126 -0.0480294 0.668728 0.144088 0.867086L4.3612 5.2212L0.508712 9.19885C0.316595 9.39721 0.316595 9.71881 0.508712 9.91717C0.700828 10.1155 1.01231 10.1155 1.20443 9.91717L5.05692 5.93952L8.90929 9.91704Z" fill="url(#paint0_linear_2_298)" />
    <defs>
        <linearGradient id="paint0_linear_2_298" x1="5.05686" y1="0" x2="5.37639" y2="21.3171" gradientUnits="userSpaceOnUse">
            <stop stop-color="white" />
            <stop offset="1" stop-color="#B79DF6" />
        </linearGradient>
    </defs>
</svg>