<svg width="100%" height="100%" viewBox="0 0 103 20" fill="none" xmlns="http://www.w3.org/2000/svg">
<path d="M5.955 14.21C4.375 14.21 3.07 13.685 2.04 12.635C1.01 11.585 0.495 10.29 0.495 8.75C0.495 7.2 1.01 5.905 2.04 4.865C3.07 3.815 4.375 3.29 5.955 3.29C6.905 3.29 7.78 3.515 8.58 3.965C9.39 4.405 10.02 5.005 10.47 5.765L8.685 6.8C8.425 6.33 8.055 5.965 7.575 5.705C7.095 5.435 6.555 5.3 5.955 5.3C4.935 5.3 4.11 5.62 3.48 6.26C2.86 6.9 2.55 7.73 2.55 8.75C2.55 9.76 2.86 10.585 3.48 11.225C4.11 11.865 4.935 12.185 5.955 12.185C6.555 12.185 7.095 12.055 7.575 11.795C8.065 11.525 8.435 11.16 8.685 10.7L10.47 11.735C10.02 12.495 9.395 13.1 8.595 13.55C7.795 13.99 6.915 14.21 5.955 14.21ZM17.3516 14L15.2366 10.355H13.6616V14H11.5916V3.5H15.7916C16.7616 3.5 17.5866 3.84 18.2666 4.52C18.9466 5.2 19.2866 6.02 19.2866 6.98C19.2866 7.63 19.1016 8.235 18.7316 8.795C18.3616 9.345 17.8716 9.76 17.2616 10.04L19.5866 14H17.3516ZM13.6616 5.435V8.54H15.7916C16.1816 8.54 16.5166 8.39 16.7966 8.09C17.0766 7.78 17.2166 7.41 17.2166 6.98C17.2166 6.55 17.0766 6.185 16.7966 5.885C16.5166 5.585 16.1816 5.435 15.7916 5.435H13.6616ZM28.6725 3.5L25.0725 9.905V14H23.0175V9.905L19.4325 3.5H21.7725L24.0525 7.88L26.3325 3.5H28.6725ZM33.4439 3.5C34.4539 3.5 35.3039 3.84 35.9939 4.52C36.6839 5.2 37.0289 6.035 37.0289 7.025C37.0289 8.015 36.6839 8.85 35.9939 9.53C35.3039 10.21 34.4539 10.55 33.4439 10.55H31.5989V14H29.5289V3.5H33.4439ZM33.4439 8.615C33.8839 8.615 34.2489 8.465 34.5389 8.165C34.8289 7.855 34.9739 7.475 34.9739 7.025C34.9739 6.565 34.8289 6.185 34.5389 5.885C34.2489 5.585 33.8839 5.435 33.4439 5.435H31.5989V8.615H33.4439ZM44.9811 3.5V5.48H42.1461V14H40.0761V5.48H37.2561V3.5H44.9811ZM54.2211 12.635C53.1611 13.685 51.8711 14.21 50.3511 14.21C48.8311 14.21 47.5411 13.685 46.4811 12.635C45.4311 11.575 44.9061 10.28 44.9061 8.75C44.9061 7.22 45.4311 5.93 46.4811 4.88C47.5411 3.82 48.8311 3.29 50.3511 3.29C51.8711 3.29 53.1611 3.82 54.2211 4.88C55.2811 5.93 55.8111 7.22 55.8111 8.75C55.8111 10.28 55.2811 11.575 54.2211 12.635ZM47.9361 11.225C48.5861 11.865 49.3911 12.185 50.3511 12.185C51.3111 12.185 52.1161 11.865 52.7661 11.225C53.4161 10.575 53.7411 9.75 53.7411 8.75C53.7411 7.75 53.4161 6.925 52.7661 6.275C52.1161 5.625 51.3111 5.3 50.3511 5.3C49.3911 5.3 48.5861 5.625 47.9361 6.275C47.2861 6.925 46.9611 7.75 46.9611 8.75C46.9611 9.75 47.2861 10.575 47.9361 11.225Z" fill="white"/>
<path d="M66.2335 14.5707C65.1662 14.5707 64.2682 14.3347 63.5395 13.8626C62.8108 13.3802 62.2976 12.7285 62 11.9075L63.8166 10.8452C64.2374 11.9434 65.0635 12.4925 66.2951 12.4925C66.8904 12.4925 67.3266 12.3847 67.6037 12.1692C67.8808 11.9536 68.0193 11.6817 68.0193 11.3533C68.0193 10.9735 67.85 10.681 67.5113 10.4758C67.1726 10.2602 66.5671 10.0293 65.6947 9.78299C65.2124 9.63931 64.8018 9.49563 64.4632 9.35194C64.1347 9.20826 63.8012 9.01839 63.4625 8.78234C63.1341 8.53602 62.8826 8.22813 62.7082 7.85866C62.5337 7.48918 62.4464 7.05813 62.4464 6.5655C62.4464 5.5905 62.7903 4.81564 63.4779 4.2409C64.1758 3.6559 65.0122 3.3634 65.9872 3.3634C66.8596 3.3634 67.6242 3.57893 68.281 4.00998C68.9481 4.43077 69.4664 5.0209 69.8359 5.78037L68.0501 6.81182C67.6191 5.88813 66.9314 5.42629 65.9872 5.42629C65.5459 5.42629 65.197 5.52892 64.9404 5.73419C64.6941 5.92919 64.5709 6.18577 64.5709 6.50392C64.5709 6.84261 64.7095 7.11971 64.9866 7.33524C65.2739 7.5405 65.8179 7.76629 66.6184 8.0126C66.9468 8.11523 67.1931 8.19734 67.3574 8.25892C67.5318 8.31023 67.7627 8.39747 68.0501 8.52063C68.3477 8.63352 68.5735 8.74128 68.7275 8.84392C68.8917 8.94655 69.0764 9.0851 69.2817 9.25957C69.487 9.43405 69.6409 9.61365 69.7435 9.79839C69.8564 9.98312 69.9488 10.2089 70.0206 10.4758C70.1027 10.7323 70.1438 11.0146 70.1438 11.3225C70.1438 12.318 69.7795 13.1082 69.0508 13.6932C68.3324 14.2782 67.3933 14.5707 66.2335 14.5707Z" fill="white"/>
<path d="M80.5347 3.57893H82.6592V14.3552H80.5347V3.57893Z" fill="white"/>
<path d="M98.2335 14.5707C97.1662 14.5707 96.2682 14.3347 95.5395 13.8626C94.8108 13.3802 94.2976 12.7285 94 11.9075L95.8166 10.8452C96.2374 11.9434 97.0635 12.4925 98.2951 12.4925C98.8904 12.4925 99.3266 12.3847 99.6037 12.1692C99.8808 11.9536 100.019 11.6817 100.019 11.3533C100.019 10.9735 99.85 10.681 99.5113 10.4758C99.1726 10.2602 98.5671 10.0293 97.6947 9.78299C97.2124 9.63931 96.8018 9.49563 96.4632 9.35194C96.1347 9.20826 95.8012 9.01839 95.4625 8.78234C95.1341 8.53602 94.8826 8.22813 94.7082 7.85866C94.5337 7.48918 94.4464 7.05813 94.4464 6.5655C94.4464 5.5905 94.7903 4.81564 95.4779 4.2409C96.1758 3.6559 97.0122 3.3634 97.9872 3.3634C98.8596 3.3634 99.6242 3.57893 100.281 4.00998C100.948 4.43077 101.466 5.0209 101.836 5.78037L100.05 6.81182C99.6191 5.88813 98.9314 5.42629 97.9872 5.42629C97.5459 5.42629 97.197 5.52892 96.9404 5.73419C96.6941 5.92919 96.5709 6.18577 96.5709 6.50392C96.5709 6.84261 96.7095 7.11971 96.9866 7.33524C97.2739 7.5405 97.8179 7.76629 98.6184 8.0126C98.9468 8.11523 99.1931 8.19734 99.3574 8.25892C99.5318 8.31023 99.7627 8.39747 100.05 8.52063C100.348 8.63352 100.574 8.74128 100.727 8.84392C100.892 8.94655 101.076 9.0851 101.282 9.25957C101.487 9.43405 101.641 9.61365 101.744 9.79839C101.856 9.98312 101.949 10.2089 102.021 10.4758C102.103 10.7323 102.144 11.0146 102.144 11.3225C102.144 12.318 101.779 13.1082 101.051 13.6932C100.332 14.2782 99.3933 14.5707 98.2335 14.5707Z" fill="white"/>
<path d="M90.8891 0.5H93.0136V11.2763H91.3972L86.7788 4.68736V11.2763H84.6543V0.5H86.2707L90.8891 7.07354V0.5Z" fill="url(#paint0_linear_98_217)"/>
<path d="M75.2548 9.22375C76.2914 9.22375 77.1638 9.5727 77.8719 10.2706C78.5801 10.9685 78.9342 11.8255 78.9342 12.8415C78.9342 13.8576 78.5801 14.7145 77.8719 15.4124C77.1638 16.1103 76.2914 16.4593 75.2548 16.4593H73.3613V20H71.2368V9.22375H75.2548ZM75.2548 14.4733C75.7064 14.4733 76.081 14.3194 76.3786 14.0115C76.6763 13.6933 76.8251 13.3033 76.8251 12.8415C76.8251 12.3694 76.6763 11.9794 76.3786 11.6715C76.081 11.3636 75.7064 11.2097 75.2548 11.2097H73.3613V14.4733H75.2548Z" fill="url(#paint1_linear_98_217)"/>
<path d="M92.9638 12.3026H90.8393V15.8947H92.9638V12.3026Z" fill="white"/>
<path d="M92.9638 12.3026H90.8393V15.8947H92.9638V12.3026Z" fill="url(#paint2_linear_98_217)"/>
<path d="M86.2209 12.3026H84.6045V15.8947H88.7446L86.2209 12.3026Z" fill="white"/>
<path d="M86.2209 12.3026H84.6045V15.8947H88.7446L86.2209 12.3026Z" fill="url(#paint3_linear_98_217)"/>
<path d="M75.2548 4.65646C76.2914 4.65646 77.1638 4.30751 77.8719 3.60962C78.0461 3.43793 78.1989 3.25662 78.3303 3.06567H71.2368L71.2368 8.19724H73.3613V4.65646H75.2548Z" fill="url(#paint4_linear_98_217)"/>
<defs>
<linearGradient id="paint0_linear_98_217" x1="88.7098" y1="-9.19866" x2="88.7098" y2="8.0434" gradientUnits="userSpaceOnUse">
<stop stop-color="#B79DF6"/>
<stop offset="1" stop-color="white"/>
</linearGradient>
<linearGradient id="paint1_linear_98_217" x1="74.6782" y1="13.3685" x2="75" y2="22" gradientUnits="userSpaceOnUse">
<stop stop-color="white"/>
<stop offset="1" stop-color="#B79DF6"/>
</linearGradient>
<linearGradient id="paint2_linear_98_217" x1="88.3418" y1="13.6842" x2="88.3418" y2="21.9735" gradientUnits="userSpaceOnUse">
<stop stop-color="white"/>
<stop offset="1" stop-color="#B79DF6"/>
</linearGradient>
<linearGradient id="paint3_linear_98_217" x1="88.3418" y1="13.6842" x2="88.3418" y2="21.9735" gradientUnits="userSpaceOnUse">
<stop stop-color="white"/>
<stop offset="1" stop-color="#B79DF6"/>
</linearGradient>
<linearGradient id="paint4_linear_98_217" x1="74.6782" y1="-1.55274" x2="74.6782" y2="6.65777" gradientUnits="userSpaceOnUse">
<stop stop-color="#B79DF6"/>
<stop offset="1" stop-color="white"/>
</linearGradient>
</defs>
</svg>
